Coordinates
version=1
nRows=16
nColumns=36
inDegrees=yes

Units are S.I. units (second, meters, Newtons, ...)
If the header above contains a line with 'inDegrees', this indicates whether rotational values are in degrees (yes) or radians (no).

endheader
time	pelvis_tilt	pelvis_list	pelvis_rotation	pelvis_tx	pelvis_ty	pelvis_tz	hip_flexion_r	hip_adduction_r	hip_rotation_r	knee_angle_r	knee_angle_r_beta	ankle_angle_r	subtalar_angle_r	mtp_angle_r	hip_flexion_l	hip_adduction_l	hip_rotation_l	knee_angle_l	knee_angle_l_beta	ankle_angle_l	subtalar_angle_l	mtp_angle_l	lumbar_extension	lumbar_bending	lumbar_rotation	arm_flex_r	arm_add_r	arm_rot_r	elbow_flex_r	pro_sup_r	arm_flex_l	arm_add_l	arm_rot_l	elbow_flex_l	pro_sup_l
     29.81666670	     -3.65026973	     -6.20245113	     -1.85362183	      1.06789162	      0.92135448	      0.75023877	     24.87251267	      6.79881024	      5.26550278	     17.25805357	      0.30120986	      4.51767913	      1.04747300	     -7.49999987	     -8.35731337	     -8.67753376	     -0.37279427	     28.05297486	      0.48961678	     12.10459016	     -7.57633983	     -7.49999987	    -11.51778690	      9.21460434	      0.09990766	      7.28828290	    -15.22187834	     10.21150592	     19.38058019	     83.33048454	     14.49791051	     -6.93039530	     13.12260965	     24.22625846	     81.90425602
     29.83333330	     -3.33437661	     -6.64149165	     -2.05105304	      1.06889634	      0.92394718	      0.75012177	     23.54465778	      7.58485435	      5.58930728	     17.95301759	      0.31333927	      5.51765403	      0.10539401	     -7.49999987	     -7.82514793	     -9.33808232	     -0.49151943	     31.44671615	      0.54884874	      8.88851089	     -9.09068106	     -7.49999987	    -11.20960870	      9.76366571	      0.27204605	      7.45349585	    -15.40336397	     10.21683700	     18.50233346	     82.93516881	     13.84922868	     -6.39671709	     11.83630310	     23.58416643	     81.15311976
     29.85000000	     -2.54731631	     -6.96049714	     -2.12369966	      1.06816443	      0.92924503	      0.75196850	     21.48097040	      8.20103315	      6.06579275	     18.13903450	      0.31658588	      6.63207347	     -0.58414990	     -7.49999987	     -7.29038910	     -9.83819198	     -0.61255409	     35.13393292	      0.61320281	      5.34705156	    -10.35501841	     -7.49999987	    -11.72048033	     10.15544643	      0.65196621	      7.60010031	    -15.81165383	     10.21723137	     18.58257382	     83.23404522	     13.44368994	     -6.13621572	     11.61367551	     23.45019150	     81.32149843
     29.86666670	     -1.70843620	     -7.01111531	     -1.98614130	      1.06689827	      0.93426381	      0.75676285	     19.24632085	      8.51335564	      6.50554997	     17.97144939	      0.31366096	      7.57709226	     -1.06704211	     -7.49999987	     -6.23680242	    -10.05322559	     -0.53107832	     39.16193760	      0.68350475	      1.65587082	    -11.81765433	     -7.49999987	    -12.30915529	     10.22669468	      1.03029131	      7.73618598	    -16.12229541	     10.21099234	     18.59092961	     83.41454151	     13.34881172	     -5.89859182	     11.39998413	     23.05211826	     81.40697338
     29.88333330	     -0.88463192	     -6.84811560	     -1.74878461	      1.06517097	      0.93799675	      0.76311413	     17.02984578	      8.62238363	      6.81597615	     17.68931331	      0.30873676	      8.40958758	     -1.38324532	     -7.49999987	     -4.68579788	    -10.10286982	     -0.46670599	     43.53709291	      0.75986562	     -1.86644368	    -13.05883987	     -7.49999987	    -13.03142276	      9.99595033	      1.44005991	      7.92321685	    -16.30716630	     10.20731014	     18.62447803	     83.61218740	     13.43858300	     -5.77990786	     11.31350944	     22.44636870	     81.57325439
     29.90000000	     -0.16916146	     -6.52900164	     -1.43797335	      1.06308203	      0.94095858	      0.76889704	     14.99792815	      8.58030943	      6.97979158	     17.35557541	      0.30291193	      9.04105456	     -1.65476118	     -7.49999987	     -2.80233441	    -10.00212770	     -0.36936745	     47.87623557	      0.83559794	     -4.54613926	    -14.12148583	     -7.49999987	    -13.71600450	      9.55599834	      1.86294968	      8.03276981	    -16.42429580	     10.18407738	     18.85483067	     83.68144865	     13.51156521	     -5.78908875	     11.31445100	     22.08026416	     81.67013219
     29.91666670	      0.46280977	     -5.95874647	     -1.09634853	      1.06027001	      0.94520109	      0.77308116	     13.16754687	      8.26164904	      7.11955531	     17.02725762	      0.29718171	      9.47102713	     -1.89114551	     -7.49999987	     -0.87147779	     -9.52940187	     -0.18452467	     51.55768995	      0.89985144	     -6.30971242	    -15.45611458	     -7.49999987	    -14.44719397	      8.83872485	      2.75889298	      7.67864466	    -16.44358572	      8.41734991	     19.54864747	     85.68902942	     14.07361986	     -5.75671632	     11.95933464	     20.95450676	     84.39614271
     29.93333330	      1.01864936	     -5.21602118	     -0.68511515	      1.05729276	      0.94889976	      0.77581447	     11.48786136	      7.71570893	      7.16244719	     16.67032168	      0.29095200	      9.81111761	     -2.01641794	     -7.49999987	      1.12037940	     -8.85606048	     -0.08563307	     54.48295850	      0.95090701	     -6.47497078	    -16.27387767	     -7.49999987	    -15.27091023	      7.95904094	      3.10058425	      7.91057391	    -16.36412513	      8.39205630	     19.82795667	     85.67857857	     14.05567668	     -6.01673319	     11.77686055	     20.87305290	     84.32234575
     29.95000000	      1.52038229	     -4.30867920	     -0.28700340	      1.05443925	      0.95181918	      0.77761373	      9.85183343	      6.91629850	      7.02409202	     16.23680694	      0.28338574	     10.21444915	     -1.46668053	     -7.49999987	      3.15207928	     -8.00901193	     -0.20668755	     56.59081530	      0.98769605	     -5.83424141	    -17.19017552	     -7.49999987	    -16.11901480	      6.88536703	      3.42811125	      8.03560587	    -16.22272113	      8.24771952	     20.47254747	     83.94085427	     14.12524180	     -6.22657718	     11.22572729	     20.42185791	     82.57838916
     29.96666670	      2.06226418	     -3.23829480	      0.03086634	      1.05218988	      0.95390242	      0.77884454	      8.16228756	      5.91805874	      7.00594272	     15.81490932	      0.27602224	     10.48833616	     -1.04619679	     -7.49999987	      5.14412028	     -7.03481684	     -0.55307994	     58.03189079	      1.01284757	     -4.65004443	    -17.76416752	     -7.49999987	    -17.14285919	      5.58766818	      3.81564164	      8.17264119	    -16.07132541	      7.99487465	     21.28408084	     83.43404511	     14.16806111	     -6.63102248	     11.01636366	     20.31354638	     82.09163970
     29.98333330	      2.62626838	     -2.17965426	      0.23698688	      1.05106278	      0.95494299	      0.77969302	      6.47305763	      4.86235699	      6.75685221	     15.46816438	      0.26997040	     10.86381671	     -0.20805528	     -7.49999987	      7.12641939	     -6.07165164	     -0.85501629	     59.09173029	      1.03134525	     -3.62931688	    -18.25084123	     -7.49999987	    -18.24434936	      4.34946079	      4.06090562	      8.38493327	    -15.95212201	      7.82119079	     22.34497728	     81.80229524	     13.97093303	     -7.09059529	     10.68738764	     20.68420230	     80.49098474
     30.00000000	      2.83365485	     -1.16533974	      0.12810538	      1.05050243	      0.95543717	      0.78093479	      5.25706361	      3.86302065	      6.82127463	     15.25492827	      0.26624873	     11.07080719	      0.19705987	     -7.49999987	      9.42174475	     -5.21514931	     -1.23063443	     59.73767741	      1.04261916	     -2.57951076	    -18.22057335	     -7.49999987	    -18.77617292	      3.05670889	      4.55886641	      8.61207199	    -15.81745442	      7.83864809	     22.77422374	     81.71173379	     13.80701232	     -7.45116944	     10.56128487	     20.71834142	     80.34027484
     30.01666670	      2.99583526	     -0.52267512	     -0.01562166	      1.04952174	      0.95509796	      0.78192473	      4.16620336	      3.23814001	      6.87984311	     15.06407362	      0.26291768	     11.22158661	      0.40589810	     -7.49999987	     11.68213315	     -4.81421111	     -1.49613059	     59.97255972	      1.04671863	     -2.10387807	    -18.34669857	     -7.49999987	    -19.21886922	      2.33221074	      4.99352292	      8.96652936	    -15.84359901	      7.82674929	     23.16303570	     81.56933489	     13.52080667	     -7.63202342	     10.49505114	     20.79107881	     80.17506581
     30.03333330	      3.72336510	      0.47465448	     -0.22866809	      1.04765038	      0.95434206	      0.78248510	      2.59469762	      2.15813540	      6.53774149	     14.98135343	      0.26147394	     12.01659533	      1.74114255	     -7.49999987	     12.93815968	     -4.10342557	     -2.04745761	     59.25353918	      1.03416935	     -0.79580093	    -17.48056728	     -7.49999987	    -20.52368682	      0.93499937	      5.69299465	      9.18060406	    -15.88837442	      7.78673220	     24.02592195	     81.68278296	     13.82188562	     -7.80410756	     10.00657454	     20.80139625	     80.07651686
     30.05000000	      3.79920394	      1.13127258	     -0.28165209	      1.04641226	      0.95290470	      0.78152484	      1.73315606	      1.46683902	      6.48207534	     14.87952832	      0.25969676	     12.53418766	      2.05532695	     -7.49999987	     14.73206537	     -3.68106862	     -2.48633603	     58.05179823	      1.01319502	      0.31191098	    -17.19172390	     -7.49999987	    -20.89209788	      0.12828598	      6.14416307	      9.33654408	    -15.99641318	      7.71774811	     24.82214840	     81.63413928	     13.61011672	     -7.93671385	      9.69323259	     20.89163259	     79.92927447
     30.06666670	      4.11415023	      1.58238494	     -0.36154881	      1.04659947	      0.95321532	      0.78000628	      0.55011882	      0.95373651	      6.40905443	     14.68786459	      0.25635160	     13.21004579	      2.66141885	     -7.49999987	     15.91214814	     -3.49341626	     -3.09167233	     56.12720961	      0.97960461	      1.68741512	    -16.50998250	     -7.49999987	    -21.43395526	     -0.42641974	      6.78563693	      9.43262714	    -16.24488276	      7.55103419	     25.89738647	     81.76085862	     13.49625296	     -7.89323571	      8.97434284	     20.69747211	     79.86712039
